<svg width="32" height="32" viewBox="0 0 32 32" fill="none" xmlns="http://www.w3.org/2000/svg">
<path fill-rule="evenodd" clip-rule="evenodd" d="M13.3327 4.33333L13.2575 4.33333C10.8072 4.33331 8.86631 4.3333 7.34736 4.53751C5.78413 4.74768 4.51887 5.19051 3.52105 6.18832L3.52105 6.18833C2.52323 7.18614 2.08041 8.45141 1.87024 10.0146C1.66602 11.5336 1.66603 13.4744 1.66606 15.9248L1.66606 16L1.66606 16.0752C1.66603 18.5256 1.66602 20.4664 1.87024 21.9854C2.08041 23.5486 2.52323 24.8139 3.52105 25.8117C4.51887 26.8095 5.78413 27.2523 7.34736 27.4625C8.86631 27.6667 10.8072 27.6667 13.2575 27.6667H13.2575H13.3327H18.6661H18.7413H18.7413C21.1916 27.6667 23.1325 27.6667 24.6514 27.4625C26.2146 27.2523 27.4799 26.8095 28.4777 25.8117C29.4756 24.8139 29.9184 23.5486 30.1285 21.9854C30.3328 20.4664 30.3327 18.5256 30.3327 16.0752V16.0752V16V15.9248V15.9248C30.3327 13.4744 30.3328 11.5336 30.1285 10.0146C29.9184 8.45141 29.4756 7.18614 28.4777 6.18832C27.4799 5.19051 26.2147 4.74768 24.6514 4.53751C23.1325 4.3333 21.1916 4.33331 18.7413 4.33333L18.6661 4.33333H13.3327ZM4.93526 7.60254C5.49954 7.03826 6.2724 6.70003 7.61385 6.51968C8.98407 6.33546 10.7903 6.33333 13.3327 6.33333H18.6661C21.2085 6.33333 23.0147 6.33546 24.3849 6.51968C25.7264 6.70003 26.4992 7.03826 27.0635 7.60254L27.7706 6.89543L27.0635 7.60254C27.6278 8.16682 27.966 8.93968 28.1464 10.2811C28.3306 11.6514 28.3327 13.4576 28.3327 16C28.3327 18.5424 28.3306 20.3486 28.1464 21.7189C27.966 23.0603 27.6278 23.8332 27.0635 24.3975C26.4992 24.9617 25.7264 25.3 24.3849 25.4803C23.0147 25.6645 21.2085 25.6667 18.6661 25.6667H13.3327C10.7903 25.6667 8.98407 25.6645 7.61385 25.4803C6.2724 25.3 5.49954 24.9617 4.93526 24.3975L4.22815 25.1046L4.93526 24.3975C4.37098 23.8332 4.03275 23.0603 3.8524 21.7189C3.66818 20.3486 3.66606 18.5424 3.66606 16C3.66606 13.4576 3.66818 11.6514 3.8524 10.2811C4.03275 8.93968 4.37098 8.16682 4.93526 7.60254L4.93526 7.60254ZM8.55409 9.83462C8.09456 9.52826 7.47369 9.65244 7.16734 10.112C6.86099 10.5715 6.98516 11.1924 7.44469 11.4987L15.4447 16.8321C15.7806 17.056 16.2182 17.056 16.5541 16.8321L24.5541 11.4987C25.0136 11.1924 25.1378 10.5715 24.8314 10.112C24.5251 9.65244 23.9042 9.52826 23.4447 9.83462L15.9994 14.7982L8.55409 9.83462Z" fill="#5EB700"/>
</svg>
