<svg width="19" height="14" viewBox="0 0 19 14" fill="none" xmlns="http://www.w3.org/2000/svg">
<path fill-rule="evenodd" clip-rule="evenodd" d="M9.73177 0.416504C6.62279 0.416504 4.3588 1.53177 2.86889 2.90707C2.12843 3.59057 1.58063 4.33684 1.21502 5.0388C0.856416 5.72733 0.648438 6.42158 0.648438 6.99984C0.648438 7.57809 0.856416 8.27235 1.21502 8.96087C1.58063 9.66283 2.12843 10.4091 2.86889 11.0926C4.3588 12.4679 6.62279 13.5832 9.73177 13.5832C12.8408 13.5832 15.1047 12.4679 16.5946 11.0926C17.3351 10.4091 17.8829 9.66283 18.2485 8.96087C18.6071 8.27235 18.8151 7.57809 18.8151 6.99984C18.8151 6.42158 18.6071 5.72733 18.2485 5.0388C17.8829 4.33684 17.3351 3.59057 16.5946 2.90707C15.1047 1.53177 12.8408 0.416504 9.73177 0.416504ZM9.73167 5.24986C8.76517 5.24986 7.98167 6.03336 7.98167 6.99986C7.98167 7.96636 8.76517 8.74986 9.73167 8.74986C10.6982 8.74986 11.4817 7.96636 11.4817 6.99986C11.4817 6.03336 10.6982 5.24986 9.73167 5.24986ZM6.48167 6.99986C6.48167 5.20494 7.93674 3.74986 9.73167 3.74986C11.5266 3.74986 12.9817 5.20494 12.9817 6.99986C12.9817 8.79479 11.5266 10.2499 9.73167 10.2499C7.93674 10.2499 6.48167 8.79479 6.48167 6.99986Z" fill="#A5A5AA"/>
</svg>
