<svg width="10" height="16" viewBox="0 0 10 16" fill="none" xmlns="http://www.w3.org/2000/svg">
<path d="M6.22868 15.9801V9.1606H8.84941C9.01321 9.1606 9.3408 9.0155 9.3408 8.72531L9.66839 6.54886C9.66839 6.25867 9.5046 6.11357 9.17701 6.11357H6.22868V4.08223C6.22868 3.21165 6.55627 2.63126 7.86664 2.63126H9.17701C9.5046 2.63126 9.66839 2.48617 9.66839 2.19598V0.45482C9.66839 0.164628 9.5046 0.0195312 9.17701 0.0195312H7.04766C4.59072 0.0195312 2.78897 1.3254 2.78897 3.79203V5.96848H0.823419C0.495827 5.96848 0.332031 6.11357 0.332031 6.40377V8.58021C0.332031 8.8704 0.495827 9.0155 0.823419 9.0155H2.78897V15.835H6.22868V15.9801Z" fill="#00387C"/>
</svg>
