<svg width="20" height="20" viewBox="0 0 20 20" fill="none" xmlns="http://www.w3.org/2000/svg">
<path d="M9.52842 10.1242C10.5877 11.1639 11.0057 12.6885 10.6238 14.1192C10.2419 15.55 9.1185 16.6734 7.68021 17.0474C6.24192 17.4273 4.70925 17.0114 3.66406 15.9577C2.09253 14.3391 2.11501 11.7664 3.71458 10.1752C5.31417 8.58406 7.90054 8.56173 9.52767 10.125L9.52842 10.1242Z" fill="white" stroke="#485868" stroke-width="2" stroke-linejoin="round"/>
<path d="M12.627 7.04175L14.8888 9.29175L17.5277 6.66675L15.2658 4.41675L12.627 7.04175Z" fill="white" stroke="#485868" stroke-width="2" stroke-linejoin="round"/>
<mask id="path-3-inside-1_4591_18627" fill="white">
<path d="M17.362 3.50739C17.6883 3.18281 17.6897 2.65518 17.3651 2.32888C17.0405 2.00259 16.5129 2.0012 16.1866 2.32578L17.362 3.50739ZM14.6786 3.82578C14.3524 4.15035 14.351 4.678 14.6756 5.00429C15.0001 5.33058 15.5278 5.33196 15.8541 5.00738L14.6786 3.82578ZM8.94094 9.53329C8.61464 9.85788 8.61327 10.3855 8.93785 10.7118C9.26244 11.0381 9.79006 11.0395 10.1164 10.7149L8.94094 9.53329ZM13.2151 7.63238C13.5415 7.30783 13.5429 6.78017 13.2183 6.45388C12.8937 6.12758 12.3661 6.12621 12.0398 6.45079L13.2151 7.63238ZM12.0398 6.45079C11.7135 6.77533 11.7121 7.303 12.0366 7.62929C12.3612 7.95558 12.8889 7.95696 13.2151 7.63238L12.0398 6.45079ZM15.8541 5.00738C16.1804 4.68283 16.1817 4.15518 15.8571 3.82888C15.5326 3.50259 15.0049 3.5012 14.6786 3.82578L15.8541 5.00738ZM16.1866 2.32578L14.6786 3.82578L15.8541 5.00738L17.362 3.50739L16.1866 2.32578ZM15.8541 5.00738L17.362 3.50739L16.1866 2.32578L14.6786 3.82578L15.8541 5.00738ZM10.1164 10.7149L13.2151 7.63238L12.0398 6.45079L8.94094 9.53329L10.1164 10.7149ZM12.0398 6.45079L8.94094 9.53329L10.1164 10.7149L13.2151 7.63238L12.0398 6.45079ZM13.2151 7.63238L15.8541 5.00738L14.6786 3.82578L12.0398 6.45079L13.2151 7.63238ZM14.6786 3.82578L12.0398 6.45079L13.2151 7.63238L15.8541 5.00738L14.6786 3.82578Z"/>
</mask>
<path d="M17.362 3.50739C17.6883 3.18281 17.6897 2.65518 17.3651 2.32888C17.0405 2.00259 16.5129 2.0012 16.1866 2.32578L17.362 3.50739ZM14.6786 3.82578C14.3524 4.15035 14.351 4.678 14.6756 5.00429C15.0001 5.33058 15.5278 5.33196 15.8541 5.00738L14.6786 3.82578ZM8.94094 9.53329C8.61464 9.85788 8.61327 10.3855 8.93785 10.7118C9.26244 11.0381 9.79006 11.0395 10.1164 10.7149L8.94094 9.53329ZM13.2151 7.63238C13.5415 7.30783 13.5429 6.78017 13.2183 6.45388C12.8937 6.12758 12.3661 6.12621 12.0398 6.45079L13.2151 7.63238ZM12.0398 6.45079C11.7135 6.77533 11.7121 7.303 12.0366 7.62929C12.3612 7.95558 12.8889 7.95696 13.2151 7.63238L12.0398 6.45079ZM15.8541 5.00738C16.1804 4.68283 16.1817 4.15518 15.8571 3.82888C15.5326 3.50259 15.0049 3.5012 14.6786 3.82578L15.8541 5.00738ZM16.1866 2.32578L14.6786 3.82578L15.8541 5.00738L17.362 3.50739L16.1866 2.32578ZM15.8541 5.00738L17.362 3.50739L16.1866 2.32578L14.6786 3.82578L15.8541 5.00738ZM10.1164 10.7149L13.2151 7.63238L12.0398 6.45079L8.94094 9.53329L10.1164 10.7149ZM12.0398 6.45079L8.94094 9.53329L10.1164 10.7149L13.2151 7.63238L12.0398 6.45079ZM13.2151 7.63238L15.8541 5.00738L14.6786 3.82578L12.0398 6.45079L13.2151 7.63238ZM14.6786 3.82578L12.0398 6.45079L13.2151 7.63238L15.8541 5.00738L14.6786 3.82578Z" fill="#485868"/>
<path d="M17.362 3.50739L17.0075 3.86001L17.3601 4.2145L17.7146 3.86187L17.362 3.50739ZM17.3651 2.32888L17.7196 1.97626L17.7196 1.97626L17.3651 2.32888ZM16.1866 2.32578L15.834 1.97129L15.4795 2.32391L15.8321 2.67839L16.1866 2.32578ZM14.6786 3.82578L15.0331 3.47315L14.6805 3.11867L14.326 3.47129L14.6786 3.82578ZM14.6756 5.00429L15.0301 4.65169L15.03 4.65167L14.6756 5.00429ZM15.8541 5.00738L16.2067 5.36186L16.5612 5.00923L16.2085 4.65475L15.8541 5.00738ZM8.94094 9.53329L9.29541 9.18067L8.94279 8.82619L8.58831 9.17881L8.94094 9.53329ZM10.1164 10.7149L10.469 11.0694L10.8235 10.7167L10.4708 10.3622L10.1164 10.7149ZM13.2151 7.63238L12.8607 7.985L13.2132 8.33944L13.5677 7.9869L13.2151 7.63238ZM12.0398 6.45079L11.6871 6.09631L11.3327 6.44893L11.6853 6.80341L12.0398 6.45079ZM12.0398 6.45079L12.3943 6.09817L12.0416 5.74371L11.6872 6.09629L12.0398 6.45079ZM13.2151 7.63238L13.5678 7.98686L13.9222 7.63423L13.5696 7.27975L13.2151 7.63238ZM15.8541 5.00738L15.4996 5.36L15.8522 5.71446L16.2067 5.36188L15.8541 5.00738ZM15.8571 3.82888L15.5026 4.18149L15.5027 4.18151L15.8571 3.82888ZM14.6786 3.82578L14.326 3.47129L13.9715 3.82392L14.3242 4.1784L14.6786 3.82578ZM16.1866 2.32578L16.5411 1.97316L16.1885 1.61867L15.834 1.97129L16.1866 2.32578ZM14.6786 3.82578L14.326 3.47129L13.9715 3.82391L14.3242 4.1784L14.6786 3.82578ZM15.8541 5.00738L15.4996 5.36L15.8522 5.71448L16.2067 5.36186L15.8541 5.00738ZM17.362 3.50739L17.7146 3.86188L18.0691 3.50926L17.7165 3.15478L17.362 3.50739ZM15.8541 5.00738L15.4996 5.36L15.8522 5.71448L16.2067 5.36186L15.8541 5.00738ZM17.362 3.50739L17.7146 3.86188L18.0691 3.50926L17.7165 3.15478L17.362 3.50739ZM16.1866 2.32578L16.5411 1.97316L16.1885 1.61867L15.834 1.97129L16.1866 2.32578ZM14.6786 3.82578L14.326 3.47129L13.9715 3.82391L14.3242 4.1784L14.6786 3.82578ZM10.1164 10.7149L9.76187 11.0675L10.1145 11.422L10.469 11.0694L10.1164 10.7149ZM13.2151 7.63238L13.5678 7.98686L13.9222 7.63424L13.5696 7.27975L13.2151 7.63238ZM12.0398 6.45079L12.3943 6.09817L12.0416 5.74369L11.6872 6.09631L12.0398 6.45079ZM8.94094 9.53329L8.58832 9.17881L8.23382 9.53143L8.58646 9.88592L8.94094 9.53329ZM12.0398 6.45079L12.3943 6.09817L12.0416 5.74369L11.6872 6.09631L12.0398 6.45079ZM8.94094 9.53329L8.58832 9.17881L8.23382 9.53143L8.58646 9.88592L8.94094 9.53329ZM10.1164 10.7149L9.76187 11.0675L10.1145 11.422L10.469 11.0694L10.1164 10.7149ZM13.2151 7.63238L13.5678 7.98686L13.9222 7.63424L13.5696 7.27975L13.2151 7.63238ZM13.2151 7.63238L12.8607 7.985L13.2133 8.33948L13.5678 7.98686L13.2151 7.63238ZM15.8541 5.00738L16.2067 5.36186L16.5612 5.00924L16.2085 4.65475L15.8541 5.00738ZM14.6786 3.82578L15.0331 3.47315L14.6805 3.11867L14.326 3.47129L14.6786 3.82578ZM12.0398 6.45079L11.6871 6.09631L11.3327 6.44893L11.6853 6.80341L12.0398 6.45079ZM14.6786 3.82578L15.0331 3.47315L14.6805 3.11867L14.326 3.47129L14.6786 3.82578ZM12.0398 6.45079L11.6871 6.09631L11.3327 6.44893L11.6853 6.80341L12.0398 6.45079ZM13.2151 7.63238L12.8607 7.985L13.2133 8.33948L13.5678 7.98686L13.2151 7.63238ZM15.8541 5.00738L16.2067 5.36186L16.5612 5.00924L16.2085 4.65475L15.8541 5.00738ZM17.7146 3.86187C18.2366 3.34257 18.2389 2.49835 17.7196 1.97626L17.0106 2.68151C17.1404 2.81201 17.1399 3.02306 17.0094 3.15291L17.7146 3.86187ZM17.7196 1.97626C17.2003 1.4542 16.3561 1.45197 15.834 1.97129L16.5392 2.68026C16.6697 2.55043 16.8808 2.55098 17.0106 2.68151L17.7196 1.97626ZM15.8321 2.67839L17.0075 3.86001L17.7165 3.15478L16.5411 1.97316L15.8321 2.67839ZM14.326 3.47129C13.8039 3.99063 13.8018 4.83486 14.3211 5.35692L15.03 4.65167C14.9002 4.52114 14.9008 4.31008 15.0313 4.18026L14.326 3.47129ZM14.3211 5.35689C14.8404 5.87901 15.6846 5.88117 16.2067 5.36186L15.5014 4.6529C15.3709 4.78275 15.1598 4.78216 15.0301 4.65169L14.3211 5.35689ZM16.2085 4.65475L15.0331 3.47315L14.3242 4.1784L15.4996 5.36L16.2085 4.65475ZM8.58831 9.17881C8.06624 9.69815 8.06405 10.5424 8.58337 11.0644L9.29233 10.3592C9.16249 10.2286 9.16305 10.0176 9.29356 9.88777L8.58831 9.17881ZM8.58337 11.0644C9.10271 11.5865 9.94692 11.5887 10.469 11.0694L9.76373 10.3604C9.6332 10.4902 9.42216 10.4897 9.29233 10.3592L8.58337 11.0644ZM10.4708 10.3622L9.29541 9.18067L8.58646 9.88592L9.76187 11.0675L10.4708 10.3622ZM13.5677 7.9869C14.0899 7.46758 14.0921 6.6233 13.5727 6.10125L12.8638 6.8065C12.9936 6.93703 12.993 7.14808 12.8626 7.27785L13.5677 7.9869ZM13.5727 6.10125C13.0534 5.57918 12.2092 5.57699 11.6871 6.09631L12.3924 6.80527C12.5229 6.67543 12.734 6.67599 12.8638 6.8065L13.5727 6.10125ZM11.6853 6.80341L12.8607 7.985L13.5696 7.27975L12.3943 6.09817L11.6853 6.80341ZM11.6872 6.09629C11.1651 6.61557 11.1628 7.45984 11.6822 7.98192L12.3911 7.27667C12.2613 7.14616 12.2619 6.93509 12.3924 6.80529L11.6872 6.09629ZM11.6822 7.98192C12.2015 8.50399 13.0457 8.50618 13.5678 7.98686L12.8625 7.2779C12.732 7.40774 12.521 7.40718 12.3911 7.27667L11.6822 7.98192ZM13.5696 7.27975L12.3943 6.09817L11.6853 6.80341L12.8607 7.985L13.5696 7.27975ZM16.2067 5.36188C16.7288 4.84256 16.7309 3.99831 16.2116 3.47626L15.5027 4.18151C15.6325 4.31205 15.6319 4.52311 15.5015 4.65287L16.2067 5.36188ZM16.2116 3.47628C15.6923 2.95418 14.8481 2.95198 14.326 3.47129L15.0313 4.18026C15.1618 4.05042 15.3729 4.051 15.5026 4.18149L16.2116 3.47628ZM14.3242 4.1784L15.4996 5.36L16.2085 4.65475L15.0331 3.47315L14.3242 4.1784ZM15.834 1.97129L14.326 3.47129L15.0313 4.18026L16.5392 2.68026L15.834 1.97129ZM14.3242 4.1784L15.4996 5.36L16.2085 4.65475L15.0331 3.47315L14.3242 4.1784ZM16.2067 5.36186L17.7146 3.86188L17.0094 3.15291L15.5014 4.65289L16.2067 5.36186ZM17.7165 3.15478L16.5411 1.97316L15.8321 2.67839L17.0075 3.86001L17.7165 3.15478ZM16.2067 5.36186L17.7146 3.86188L17.0094 3.15291L15.5014 4.65289L16.2067 5.36186ZM17.7165 3.15478L16.5411 1.97316L15.8321 2.67839L17.0075 3.86001L17.7165 3.15478ZM15.834 1.97129L14.326 3.47129L15.0313 4.18026L16.5392 2.68026L15.834 1.97129ZM14.3242 4.1784L15.4996 5.36L16.2085 4.65475L15.0331 3.47315L14.3242 4.1784ZM10.469 11.0694L13.5678 7.98686L12.8625 7.27789L9.76373 10.3604L10.469 11.0694ZM13.5696 7.27975L12.3943 6.09817L11.6853 6.80341L12.8607 7.985L13.5696 7.27975ZM11.6872 6.09631L8.58832 9.17881L9.29355 9.88778L12.3924 6.80528L11.6872 6.09631ZM8.58646 9.88592L9.76187 11.0675L10.4708 10.3622L9.29541 9.18067L8.58646 9.88592ZM11.6872 6.09631L8.58832 9.17881L9.29355 9.88778L12.3924 6.80528L11.6872 6.09631ZM8.58646 9.88592L9.76187 11.0675L10.4708 10.3622L9.29541 9.18067L8.58646 9.88592ZM10.469 11.0694L13.5678 7.98686L12.8625 7.27789L9.76373 10.3604L10.469 11.0694ZM13.5696 7.27975L12.3943 6.09817L11.6853 6.80341L12.8607 7.985L13.5696 7.27975ZM13.5678 7.98686L16.2067 5.36186L15.5014 4.65289L12.8625 7.27789L13.5678 7.98686ZM16.2085 4.65475L15.0331 3.47315L14.3242 4.1784L15.4996 5.36L16.2085 4.65475ZM14.326 3.47129L11.6871 6.09631L12.3924 6.80527L15.0313 4.18026L14.326 3.47129ZM11.6853 6.80341L12.8607 7.985L13.5696 7.27975L12.3943 6.09817L11.6853 6.80341ZM14.326 3.47129L11.6871 6.09631L12.3924 6.80527L15.0313 4.18026L14.326 3.47129ZM11.6853 6.80341L12.8607 7.985L13.5696 7.27975L12.3943 6.09817L11.6853 6.80341ZM13.5678 7.98686L16.2067 5.36186L15.5014 4.65289L12.8625 7.27789L13.5678 7.98686ZM16.2085 4.65475L15.0331 3.47315L14.3242 4.1784L15.4996 5.36L16.2085 4.65475Z" fill="#485868" mask="url(#path-3-inside-1_4591_18627)"/>
</svg>
