<svg width="20" height="21" viewBox="0 0 20 21" fill="none" xmlns="http://www.w3.org/2000/svg">
<path d="M7.34766 13.151L12.651 7.84766" stroke="#485868" stroke-width="2" stroke-linecap="round" stroke-linejoin="round"/>
<path d="M11.3258 14.4771L9.11604 16.6868C8.41274 17.3899 7.45897 17.7848 6.46452 17.7847C5.47007 17.7846 4.51638 17.3896 3.81319 16.6864C3.11001 15.9832 2.71493 15.0295 2.71484 14.0351C2.71476 13.0406 3.10968 12.0868 3.81274 11.3835L6.02245 9.17383" stroke="#485868" stroke-width="2" stroke-linecap="round" stroke-linejoin="round"/>
<path d="M13.9771 11.8257L16.1868 9.61604C16.8899 8.91274 17.2848 7.95897 17.2847 6.96452C17.2847 5.97007 16.8896 5.01638 16.1864 4.31319C15.4832 3.61001 14.5295 3.21493 13.5351 3.21484C12.5406 3.21476 11.5868 3.60968 10.8835 4.31274L8.67383 6.52245" stroke="#485868" stroke-width="2" stroke-linecap="round" stroke-linejoin="round"/>
</svg>
