<svg width="32" height="32" viewBox="0 0 32 32" fill="none" xmlns="http://www.w3.org/2000/svg">
<path fill-rule="evenodd" clip-rule="evenodd" d="M15.9656 1.66667L15.9993 1.66667L16.0329 1.66667L16.0329 1.66667C16.6256 1.66666 17.1203 1.66665 17.5264 1.69436C17.9492 1.72321 18.3486 1.7854 18.7358 1.94578C19.6342 2.31792 20.348 3.03172 20.7202 3.93016C20.8805 4.31735 20.9427 4.71671 20.9716 5.13951C20.9993 5.54566 20.9993 6.04038 20.9993 6.63299V6.66667V10.9547C24.1796 12.7165 26.3326 16.1068 26.3326 20C26.3326 25.7069 21.7062 30.3333 15.9993 30.3333C10.2923 30.3333 5.66593 25.7069 5.66593 20C5.66593 16.1068 7.81895 12.7165 10.9993 10.9547V6.66667L10.9993 6.633V6.63296V6.63295C10.9993 6.04035 10.9992 5.54565 11.027 5.13951C11.0558 4.71671 11.118 4.31735 11.2784 3.93016C11.6505 3.03172 12.3643 2.31792 13.2628 1.94578C13.6499 1.7854 14.0493 1.72321 14.4721 1.69436C14.8783 1.66665 15.373 1.66666 15.9656 1.66667L15.9656 1.66667ZM18.9993 6.66667V10.1089C18.0498 9.82129 17.0426 9.66667 15.9993 9.66667C14.9559 9.66667 13.9487 9.82129 12.9993 10.1089V6.66667C12.9993 6.03173 12.9998 5.60561 13.0223 5.27566C13.0442 4.95469 13.0835 4.7984 13.1261 4.69553C13.2953 4.28715 13.6197 3.96269 14.0281 3.79353C14.131 3.75092 14.2873 3.71162 14.6083 3.68972C14.9382 3.66721 15.3643 3.66667 15.9993 3.66667C16.6342 3.66667 17.0603 3.66721 17.3903 3.68972C17.7112 3.71162 17.8675 3.75092 17.9704 3.79353C18.3788 3.96269 18.7032 4.28715 18.8724 4.69553C18.915 4.7984 18.9543 4.95469 18.9762 5.27566C18.9987 5.60561 18.9993 6.03173 18.9993 6.66667ZM15.9993 11.6667C11.3969 11.6667 7.66593 15.3976 7.66593 20C7.66593 24.6024 11.3969 28.3333 15.9993 28.3333C20.6016 28.3333 24.3326 24.6024 24.3326 20C24.3326 15.3976 20.6016 11.6667 15.9993 11.6667ZM16.9993 18.6667C16.9993 18.1144 16.5516 17.6667 15.9993 17.6667C15.447 17.6667 14.9993 18.1144 14.9993 18.6667V21.3333C14.9993 21.8856 15.447 22.3333 15.9993 22.3333C16.5516 22.3333 16.9993 21.8856 16.9993 21.3333V18.6667Z" fill="#5EB700"/>
</svg>
