<svg width="169" height="48" viewBox="0 0 169 48" fill="none" xmlns="http://www.w3.org/2000/svg">
<path d="M55.8316 22.632V25.3334C55.8556 26.191 55.7075 27.0448 55.3959 27.8441C55.0843 28.6435 54.6156 29.3723 54.0176 29.9874C53.4195 30.6025 52.7041 31.0914 51.9138 31.4253C51.1235 31.7592 50.2743 31.9312 49.4163 31.9312C48.5584 31.9312 47.7091 31.7592 46.9188 31.4253C46.1285 31.0914 45.4132 30.6025 44.8151 29.9874C44.217 29.3723 43.7483 28.6435 43.4367 27.8441C43.1251 27.0448 42.977 26.191 43.0011 25.3334V10.7559H37.4922V25.3334C37.491 27.472 38.0651 29.5716 39.1544 31.412C40.2436 33.2524 41.8078 34.7659 43.6831 35.7939C45.5584 36.8219 47.6757 37.3266 49.8131 37.2549C51.9505 37.1833 54.0293 36.538 55.8316 35.3867V36.7248H61.3455V10.7559H55.8316V22.632Z" fill="#5EB700"/>
<path d="M69.9163 10.7549H64.4023V36.734H69.9163V10.7549Z" fill="#5EB700"/>
<path d="M86.3161 31.7502C84.9233 31.7528 83.5543 31.3895 82.346 30.6968C81.1377 30.0041 80.1325 29.0062 79.431 27.803C78.7295 26.5998 78.3563 25.2334 78.3487 23.8407C78.3411 22.4479 78.6995 21.0776 79.3878 19.8668C80.0762 18.656 81.0705 17.6472 82.2712 16.9414C83.4719 16.2356 84.8369 15.8575 86.2296 15.845C87.6224 15.8324 88.994 16.1858 90.2072 16.8699C91.4205 17.5539 92.4328 18.5446 93.1429 19.7428L98.3336 17.723C96.989 15.0536 94.7946 12.9074 92.0961 11.6225C89.3975 10.3375 86.3481 9.98683 83.4283 10.6256C80.5085 11.2645 77.8841 12.8565 75.9687 15.1509C74.0532 17.4454 72.9555 20.3119 72.8485 23.2988C72.7414 26.2858 73.6311 29.2235 75.3774 31.6492C77.1237 34.0749 79.6273 35.8507 82.4939 36.6969C85.3605 37.5431 88.4272 37.4116 91.2108 36.3231C93.9944 35.2346 96.3369 33.251 97.8691 30.6848L92.5925 28.665C91.8516 29.6247 90.9007 30.4018 89.8126 30.9366C88.7246 31.4714 87.5285 31.7498 86.3161 31.7502Z" fill="#5EB700"/>
<path d="M114.081 22.2229L124.18 10.7558H116.833L106.709 22.2532V3.12109H101.195V36.7348H106.709V30.5998L110.335 26.4795L117.56 36.7348H124.306L114.081 22.2229Z" fill="#5EB700"/>
<path d="M161.279 31.7505C160.141 31.7492 159.05 31.2966 158.245 30.4919C157.441 29.6873 156.988 28.5964 156.987 27.4585V17.9152H164.899V12.3609H156.987V4.32227H151.473V27.4585C151.469 29.4983 152.102 31.4882 153.284 33.1508C154.466 34.8133 156.137 36.0655 158.064 36.7327C159.992 37.3998 162.08 37.4487 164.036 36.8723C165.993 36.296 167.721 35.1233 168.979 33.5178L164.737 29.9832C164.342 30.5302 163.822 30.9755 163.22 31.2827C162.619 31.5899 161.954 31.7502 161.279 31.7505Z" fill="#5EB700"/>
<path d="M35.5397 36.1892C34.9127 36.5622 34.2312 36.8348 33.5199 36.9971C32.0326 37.2558 30.5022 37.0805 29.1118 36.4922C28.0085 36.0717 26.9355 35.5757 25.9004 35.0076C29.5833 32.9361 32.3853 29.5939 33.7825 25.6061C35.1796 21.6183 35.0761 17.2581 33.4913 13.3411C31.9066 9.42411 28.9491 6.21858 25.1721 4.32415C21.3951 2.42972 17.0574 1.97615 12.9702 3.04827C8.88302 4.1204 5.32641 6.64478 2.96563 10.1492C0.604856 13.6537 -0.398373 17.8982 0.1436 22.0887C0.685573 26.2793 2.73562 30.1288 5.91029 32.9174C9.08495 35.7059 13.1668 37.2424 17.3922 37.2395C18.0307 37.2664 18.6588 37.4101 19.2453 37.6636C20.0128 37.9565 20.846 38.3554 21.7094 38.7795C23.5624 39.7638 25.4865 40.6078 27.4657 41.3042C28.5905 41.6773 29.7545 41.9196 30.9347 42.0263C32.1939 42.1331 33.4622 42.0273 34.6864 41.7132C35.8956 41.3921 37.046 40.8808 38.0947 40.1984C39.0631 39.5434 39.9601 38.7886 40.7709 37.9464L37.4282 34.7047C36.8495 35.261 36.2169 35.7583 35.5397 36.1892ZM5.52616 19.8746C5.52616 17.5258 6.22268 15.2296 7.52765 13.2766C8.83262 11.3236 10.6874 9.80138 12.8575 8.9025C15.0276 8.00362 17.4155 7.76844 19.7192 8.22668C22.023 8.68493 24.1391 9.81602 25.8 11.4769C27.4609 13.1378 28.592 15.254 29.0503 17.5577C29.5085 19.8615 29.2733 22.2494 28.3744 24.4194C27.4756 26.5895 25.9534 28.4443 24.0003 29.7493C22.0473 31.0543 19.7512 31.7508 17.4023 31.7508C14.2538 31.7468 11.2354 30.4943 9.00903 28.2679C6.78269 26.0416 5.53017 23.0232 5.52616 19.8746Z" fill="#5EB700"/>
<path d="M141.849 35.8963C144.063 35.0831 146.071 33.7938 147.732 32.1193L146.565 30.9378L144.45 28.7918C143.207 29.8601 141.745 30.6442 140.168 31.0892C138.546 31.585 136.854 31.8085 135.159 31.7507C133.453 31.7523 131.791 31.2061 130.418 30.1926C129.046 29.1791 128.035 27.7518 127.534 26.1207H145.843H148.368C148.506 25.3508 148.576 24.5701 148.575 23.7878C148.571 20.2188 147.151 16.7971 144.628 14.2734C142.104 11.7498 138.682 10.3302 135.113 10.3262C134.376 10.325 133.639 10.3858 132.912 10.508C132.523 10.5736 132.144 10.6493 131.771 10.7453C128.909 11.4818 126.368 13.1398 124.542 15.4632C122.716 17.7867 121.705 20.6466 121.665 23.6016C121.626 26.5567 122.56 29.4427 124.323 31.8143C126.086 34.1859 128.581 35.9113 131.422 36.7244L131.68 36.7951C132.813 37.1002 133.981 37.2547 135.154 37.2545C137.445 37.1669 139.707 36.7046 141.849 35.8862V35.8963ZM135.154 15.8502C136.854 15.853 138.508 16.3995 139.876 17.4097C141.243 18.4199 142.251 19.841 142.753 21.4651H127.534C128.037 19.8377 129.049 18.4143 130.42 17.4037C131.791 16.3932 133.45 15.8487 135.154 15.8502Z" fill="#5EB700"/>
<path d="M67.1594 4.12574e-06C66.5484 0.00100245 65.9515 0.183088 65.4439 0.523253C64.9364 0.863417 64.5411 1.34639 64.308 1.91114C64.0749 2.4759 64.0144 3.09708 64.1342 3.69619C64.254 4.2953 64.5487 4.84545 64.9811 5.27712C65.4135 5.70879 65.9641 6.00261 66.5634 6.12144C67.1627 6.24026 67.7838 6.17877 68.3482 5.94473C68.9126 5.71069 69.3949 5.31461 69.7342 4.80654C70.0736 4.29846 70.2547 3.7012 70.2547 3.09023C70.2547 2.68399 70.1746 2.28173 70.019 1.90648C69.8633 1.53123 69.6353 1.19034 69.3478 0.903322C69.0603 0.616302 68.719 0.388783 68.3435 0.233782C67.968 0.0787806 67.5656 -0.000659664 67.1594 4.12574e-06Z" fill="#5EB700"/>
<path d="M46.8789 42.4707H49.9085V43.4301H47.9544V44.6621H49.8732V45.6215H47.9544V46.9344H49.9085V47.8988H46.8789V42.4707Z" fill="#FF7D00"/>
<path d="M54.4393 45.0459L52.7376 42.4707H53.9747L55.0856 44.243L56.1762 42.4707H57.4083L55.7218 45.0661L57.6002 47.8988H56.3378L55.025 45.8134L53.7626 47.8988H52.5508L54.4393 45.0459Z" fill="#FF7D00"/>
<path d="M62.0099 42.4707C62.9288 42.4707 63.2974 42.602 63.6105 42.8444C63.8085 43.0156 63.9663 43.2283 64.0728 43.4674C64.1792 43.7066 64.2317 43.9662 64.2265 44.2279C64.2317 44.4839 64.1837 44.7381 64.0855 44.9745C63.9873 45.211 63.841 45.4244 63.656 45.6013C63.2272 45.9386 62.6834 46.0945 62.1411 46.0356H61.4696V47.8988H60.3789V42.4707H62.0099ZM61.4595 45.0762H62.1058C62.3512 45.0891 62.5959 45.0405 62.8178 44.9348C62.9354 44.8636 63.031 44.7614 63.0943 44.6393C63.1575 44.5173 63.1859 44.3802 63.1763 44.243C63.186 44.1069 63.1559 43.9708 63.0895 43.8516C63.0232 43.7323 62.9235 43.6349 62.8026 43.5715C62.5723 43.4643 62.319 43.4157 62.0654 43.4301H61.4595V45.0762Z" fill="#FF7D00"/>
<path d="M67.0273 42.4707H70.057V43.4301H68.1079V44.6621H70.0216V45.6215H68.1079V46.9344H70.057V47.8988H67.0273V42.4707Z" fill="#FF7D00"/>
<path d="M73.1211 42.4704H74.7621C75.3248 42.417 75.8903 42.5368 76.383 42.8138C76.6071 42.9869 76.7868 43.211 76.9071 43.4674C77.0274 43.7238 77.0849 44.0052 77.0748 44.2882C77.0807 44.6473 76.9767 44.9997 76.7768 45.2981C76.5663 45.6019 76.2458 45.812 75.8831 45.8838L77.095 47.9036H75.9487L74.4895 45.3789H74.7015C75.0404 45.4127 75.3817 45.3441 75.6811 45.182C75.7934 45.0834 75.8825 44.9612 75.9419 44.8241C76.0012 44.6871 76.0295 44.5385 76.0245 44.3892C76.0272 44.2355 75.9916 44.0836 75.9211 43.947C75.8506 43.8104 75.7474 43.6934 75.6205 43.6065C75.3841 43.4782 75.1165 43.4188 74.848 43.4349H74.2118V47.9036H73.1211V42.4704Z" fill="#FF7D00"/>
<path d="M79.9531 42.4707H81.0438V47.8988H79.9531V42.4707Z" fill="#FF7D00"/>
<path d="M84.2656 42.4707H87.2953V43.4301H85.3462V44.6621H87.2599V45.6215H85.3462V46.9344H87.2953V47.8988H84.2656V42.4707Z" fill="#FF7D00"/>
<path d="M93.8503 46.2325V42.4707H94.9006V47.8988H93.9058L91.3812 44.142V47.8988H90.3359V42.4707H91.3105L93.8503 46.2325Z" fill="#FF7D00"/>
<path d="M103.38 46.0806C103.206 46.6455 102.852 47.1383 102.373 47.4845C101.894 47.8307 101.315 48.0114 100.724 47.9994C99.9765 47.9994 99.2599 47.7026 98.7315 47.1742C98.2031 46.6458 97.9063 45.9291 97.9062 45.1818C97.9063 44.4346 98.2031 43.7179 98.7315 43.1895C99.2599 42.6611 99.9765 42.3643 100.724 42.3643C101.318 42.3616 101.898 42.5502 102.377 42.902C102.856 43.2539 103.209 43.7504 103.385 44.3184H102.234C102.105 44.0224 101.893 43.7698 101.625 43.5907C101.356 43.4116 101.042 43.3137 100.719 43.3085C100.243 43.3333 99.7956 43.5397 99.4679 43.8849C99.1401 44.2302 98.9574 44.6881 98.9574 45.1642C98.9574 45.6402 99.1401 46.0981 99.4679 46.4434C99.7956 46.7887 100.243 46.995 100.719 47.0198C101.035 47.0162 101.345 46.9245 101.612 46.7551C101.88 46.5857 102.095 46.3451 102.234 46.0604L103.38 46.0806Z" fill="#FF7D00"/>
<path d="M106.328 42.4707H109.358V43.4301H107.404V44.6621H109.358V45.6215H107.444V46.9344H109.358V47.8988H106.328V42.4707Z" fill="#FF7D00"/>
<path d="M117.309 47.8988H116.117L118.319 42.4707H119.283L121.429 47.8988H120.232L119.839 46.8334H117.698L117.309 47.8988ZM118.753 43.7583L117.98 45.9598H119.546L118.753 43.7583Z" fill="#FF7D00"/>
<path d="M123.395 42.4707H124.505L125.429 46.3991L126.379 42.4707H127.212L128.166 46.4092L129.085 42.4707H130.191L128.727 47.8988H127.742L126.788 44.0461L125.843 47.8988H124.834L123.395 42.4707Z" fill="#FF7D00"/>
<path d="M133.03 42.4707H136.059V43.4301H134.1V44.6621H136.014V45.6215H134.1V46.9344H136.049V47.8988H133.02L133.03 42.4707Z" fill="#FF7D00"/>
<path d="M139.929 46.2118C139.965 46.9439 140.46 47.0853 140.692 47.0853C140.886 47.0867 141.072 47.0117 141.211 46.8766C141.35 46.7414 141.43 46.557 141.434 46.3633C141.434 45.9038 141.045 45.7826 140.288 45.4847C139.879 45.3382 138.935 44.9797 138.935 43.9699C138.943 43.7452 138.996 43.5244 139.092 43.3208C139.187 43.1171 139.322 42.9347 139.49 42.7845C139.657 42.6342 139.853 42.5191 140.065 42.446C140.278 42.3729 140.503 42.3434 140.727 42.3591C140.946 42.3424 141.166 42.371 141.373 42.4431C141.58 42.5151 141.77 42.6291 141.931 42.7779C142.092 42.9267 142.221 43.1071 142.309 43.3078C142.397 43.5085 142.443 43.7253 142.444 43.9446H141.369C141.323 43.6972 141.227 43.2781 140.692 43.2781C140.607 43.2733 140.523 43.2856 140.443 43.3143C140.363 43.3429 140.29 43.3873 140.228 43.4447C140.166 43.5022 140.116 43.5716 140.081 43.6488C140.046 43.726 140.027 43.8094 140.025 43.8941C140.025 44.2981 140.313 44.3991 141.227 44.7828C142.055 45.1413 142.52 45.5352 142.52 46.2976C142.53 46.5328 142.489 46.7675 142.4 46.9854C142.311 47.2033 142.175 47.3992 142.003 47.5596C141.831 47.7199 141.625 47.841 141.402 47.9143C141.178 47.9876 140.941 48.0114 140.707 47.9841C140.462 48.0113 140.215 47.9844 139.981 47.9053C139.748 47.8262 139.535 47.6968 139.357 47.5263C139.18 47.3558 139.041 47.1483 138.953 46.9186C138.864 46.6888 138.827 46.4423 138.844 46.1966L139.929 46.2118Z" fill="#FF7D00"/>
<path d="M145.208 45.2276C145.192 44.6598 145.346 44.1001 145.65 43.6202C145.954 43.1403 146.394 42.7621 146.914 42.534C147.435 42.3059 148.011 42.2383 148.57 42.34C149.129 42.4416 149.645 42.7077 150.052 43.1043C150.458 43.5009 150.737 44.0099 150.853 44.5661C150.969 45.1222 150.916 45.7003 150.701 46.2261C150.486 46.752 150.119 47.2017 149.647 47.5177C149.175 47.8337 148.619 48.0015 148.051 47.9997C147.682 48.0057 147.315 47.9387 146.972 47.8024C146.629 47.666 146.317 47.4632 146.052 47.2055C145.788 46.9478 145.578 46.6404 145.433 46.3009C145.288 45.9615 145.211 45.5967 145.208 45.2276ZM146.304 45.1822C146.322 45.5263 146.44 45.8576 146.644 46.1352C146.848 46.4128 147.129 46.6245 147.452 46.744C147.776 46.8636 148.127 46.8858 148.462 46.8079C148.798 46.73 149.103 46.5554 149.341 46.3057C149.578 46.056 149.737 45.7422 149.798 45.403C149.859 45.0639 149.819 44.7143 149.684 44.3976C149.548 44.0808 149.323 43.8108 149.035 43.6209C148.748 43.431 148.411 43.3295 148.066 43.3291C147.828 43.3323 147.593 43.3831 147.374 43.4785C147.156 43.5739 146.959 43.712 146.795 43.8846C146.631 44.0573 146.503 44.261 146.418 44.4838C146.334 44.7066 146.295 44.9441 146.304 45.1822Z" fill="#FF7D00"/>
<path d="M153.887 47.8988V42.4707H155.361L156.755 46.3638L158.128 42.4707H159.608V47.8988H158.598L158.628 43.5462L157.113 47.8988H156.391L154.876 43.5462L154.907 47.8988H153.887Z" fill="#FF7D00"/>
<path d="M162.84 42.4707H165.869V43.4301H163.915V44.6621H165.834V45.6215H163.915V46.9344H165.91V47.8988H162.88L162.84 42.4707Z" fill="#FF7D00"/>
</svg>
