<svg width="32" height="33" viewBox="0 0 32 33" fill="none" xmlns="http://www.w3.org/2000/svg">
<path fill-rule="evenodd" clip-rule="evenodd" d="M18.7327 8.93403C20.6216 7.51733 21.9482 6.52568 22.9833 5.96315C24.0249 5.39712 24.465 5.43679 24.7447 5.57665C25.0244 5.71651 25.3202 6.04481 25.4923 7.21768C25.6634 8.38327 25.666 10.0395 25.666 12.4007L25.666 17.734C25.666 17.748 25.666 17.7619 25.666 17.7757C25.666 20.1147 25.6624 21.7583 25.4924 22.917C25.3202 24.0899 25.0244 24.4182 24.7447 24.5581C24.465 24.6979 24.0249 24.7376 22.9833 24.1716C21.9482 23.609 20.6216 22.6174 18.7327 21.2007L16.9994 19.9007L16.9993 10.234L18.7327 8.93403ZM27.6583 19.9689C27.6434 21.2497 27.5996 22.3319 27.4712 23.2074C27.2747 24.5459 26.8335 25.7497 25.6391 26.3469C24.4448 26.9441 23.217 26.5748 22.0283 25.9288C20.8487 25.2878 19.4052 24.2052 17.604 22.8542L17.5327 22.8007L15.666 21.4007H12.9993L12.9993 26.402C12.9993 28.0589 11.6562 29.402 9.99935 29.402C8.3425 29.402 6.99935 28.0589 6.99935 26.402L6.99935 21.3222C3.97669 20.8427 1.66602 18.2249 1.66602 15.0674C1.66602 11.5696 4.50154 8.73403 7.99935 8.73403L15.666 8.73403L17.5327 7.33403L17.604 7.28053L17.6041 7.28049C19.4053 5.92956 20.8487 4.84694 22.0283 4.20588C23.217 3.5599 24.4448 3.19061 25.6391 3.7878C26.8335 4.38498 27.2747 5.58878 27.4712 6.92731C27.5996 7.80279 27.6434 8.88504 27.6583 10.1658C29.9444 10.6261 31.666 12.6457 31.666 15.0674C31.666 17.489 29.9444 19.5086 27.6583 19.9689ZM27.666 17.8967C28.8312 17.4848 29.666 16.3736 29.666 15.0674C29.666 13.7611 28.8312 12.6499 27.666 12.2381C27.666 12.262 27.666 12.2859 27.666 12.31C27.666 12.3105 27.666 12.311 27.666 12.3115V12.4007L27.666 17.734V17.8232V17.8967ZM14.9993 10.734L7.99935 10.734C5.60611 10.734 3.66602 12.6741 3.66602 15.0674C3.66602 17.4606 5.60611 19.4007 7.99935 19.4007L14.9994 19.4007L14.9993 10.734ZM8.99935 21.402L8.99935 26.402C8.99935 26.9543 9.44706 27.402 9.99935 27.402C10.5516 27.402 10.9993 26.9543 10.9993 26.402L10.9993 21.402H8.99935Z" fill="#5EB700"/>
</svg>
