<svg width="32" height="32" viewBox="0 0 32 32" fill="none" xmlns="http://www.w3.org/2000/svg">
<path d="M29.3342 22.6666C29.3269 21.7285 28.9901 20.8229 28.3828 20.1079C27.7755 19.393 26.9362 18.9143 26.0116 18.7554C25.0871 18.5965 24.1361 18.7677 23.325 19.2389C22.5139 19.7101 21.8941 20.4514 21.5742 21.3333H20.0008C19.2936 21.3333 18.6153 21.0523 18.1152 20.5522C17.6151 20.0521 17.3342 19.3738 17.3342 18.6666C17.3283 17.6799 16.9579 16.7301 16.2942 15.9999C15.9214 15.5831 15.4653 15.2491 14.9555 15.0195C14.4457 14.7898 13.8933 14.6696 13.3342 14.6666H10.4275C10.113 13.777 9.49406 13.0272 8.68018 12.5498C7.8663 12.0723 6.90984 11.898 5.97984 12.0575C5.04985 12.2171 4.2062 12.7003 3.59801 13.4217C2.98982 14.1431 2.65625 15.0563 2.65625 15.9999C2.65625 16.9435 2.98982 17.8567 3.59801 18.5781C4.2062 19.2996 5.04985 19.7828 5.97984 19.9423C6.90984 20.1019 7.8663 19.9275 8.68018 19.4501C9.49406 18.9727 10.113 18.2229 10.4275 17.3333H13.3342C13.6878 17.3333 14.0269 17.4737 14.277 17.7238C14.527 17.9738 14.6675 18.313 14.6675 18.6666C14.6675 20.0811 15.2294 21.4376 16.2296 22.4378C17.2298 23.438 18.5863 23.9999 20.0008 23.9999H21.5742C21.8941 24.8818 22.5139 25.6231 23.325 26.0943C24.1361 26.5655 25.0871 26.7366 26.0116 26.5778C26.9362 26.4189 27.7755 25.9402 28.3828 25.2253C28.9901 24.5103 29.3269 23.6047 29.3342 22.6666ZM6.66749 17.3333C6.40378 17.3333 6.14599 17.2551 5.92673 17.1086C5.70746 16.962 5.53656 16.7538 5.43565 16.5102C5.33473 16.2665 5.30833 15.9984 5.35977 15.7398C5.41122 15.4812 5.53821 15.2436 5.72468 15.0571C5.91115 14.8706 6.14872 14.7437 6.40737 14.6922C6.66601 14.6408 6.9341 14.6672 7.17773 14.7681C7.42137 14.869 7.6296 15.0399 7.77611 15.2592C7.92262 15.4784 8.00082 15.7362 8.00082 15.9999C8.00082 16.3535 7.86034 16.6927 7.6103 16.9427C7.36025 17.1928 7.02111 17.3333 6.66749 17.3333ZM25.3342 23.9999C25.0704 23.9999 24.8127 23.9217 24.5934 23.7752C24.3741 23.6287 24.2032 23.4205 24.1023 23.1768C24.0014 22.9332 23.975 22.6651 24.0264 22.4065C24.0779 22.1478 24.2049 21.9103 24.3913 21.7238C24.5778 21.5373 24.8154 21.4103 25.074 21.3589C25.3327 21.3074 25.6008 21.3338 25.8444 21.4348C26.088 21.5357 26.2963 21.7066 26.4428 21.9258C26.5893 22.1451 26.6675 22.4029 26.6675 22.6666C26.6675 23.0202 26.527 23.3594 26.277 23.6094C26.0269 23.8595 25.6878 23.9999 25.3342 23.9999ZM17.3342 13.7599C17.3342 13.6133 17.3342 13.4799 17.3342 13.3333C17.3342 12.626 17.6151 11.9477 18.1152 11.4476C18.6153 10.9475 19.2936 10.6666 20.0008 10.6666H21.5742C21.8887 11.5562 22.5076 12.306 23.3215 12.7834C24.1353 13.2609 25.0918 13.4352 26.0218 13.2757C26.9518 13.1161 27.7954 12.6329 28.4036 11.9115C29.0118 11.19 29.3454 10.2768 29.3454 9.33326C29.3454 8.38968 29.0118 7.47647 28.4036 6.75505C27.7954 6.03362 26.9518 5.55043 26.0218 5.39087C25.0918 5.2313 24.1353 5.40565 23.3215 5.88308C22.5076 6.36052 21.8887 7.11031 21.5742 7.99993H20.0008C18.7342 8.00312 17.5101 8.45697 16.5476 9.28025C15.5851 10.1035 14.947 11.2425 14.7475 12.4933C15.6952 12.7121 16.5801 13.1455 17.3342 13.7599ZM25.3342 7.99993C25.5979 7.99993 25.8556 8.07813 26.0749 8.22463C26.2942 8.37114 26.4651 8.57938 26.566 8.82302C26.6669 9.06665 26.6933 9.33474 26.6419 9.59338C26.5904 9.85202 26.4634 10.0896 26.277 10.2761C26.0905 10.4625 25.8529 10.5895 25.5943 10.641C25.3356 10.6924 25.0675 10.666 24.8239 10.5651C24.5803 10.4642 24.372 10.2933 24.2255 10.074C24.079 9.85475 24.0008 9.59697 24.0008 9.33326C24.0008 8.97964 24.1413 8.6405 24.3913 8.39045C24.6414 8.1404 24.9805 7.99993 25.3342 7.99993Z" fill="#5EB700"/>
</svg>
