<svg width="33" height="32" viewBox="0 0 33 32" fill="none" xmlns="http://www.w3.org/2000/svg">
<path d="M3.16602 8.66675H29.8327V24.6667H3.16602V8.66675Z" stroke="#5EB700" stroke-width="2.66667" stroke-linejoin="round"/>
<path fill-rule="evenodd" clip-rule="evenodd" d="M3.16602 14.0001C6.11154 14.0001 8.49935 11.6123 8.49935 8.66675H3.16602V14.0001Z" stroke="#5EB700" stroke-width="2.66667" stroke-linecap="round" stroke-linejoin="round"/>
<path fill-rule="evenodd" clip-rule="evenodd" d="M3.16602 19.3333C6.11154 19.3333 8.49935 21.7211 8.49935 24.6666H3.16602V19.3333Z" stroke="#5EB700" stroke-width="2.66667" stroke-linecap="round" stroke-linejoin="round"/>
<path fill-rule="evenodd" clip-rule="evenodd" d="M29.8333 19.3333V24.6666H24.5C24.5 21.7211 26.8878 19.3333 29.8333 19.3333Z" stroke="#5EB700" stroke-width="2.66667" stroke-linecap="round" stroke-linejoin="round"/>
<path fill-rule="evenodd" clip-rule="evenodd" d="M29.8333 14.0001C26.8878 14.0001 24.5 11.6123 24.5 8.66675H29.8333V14.0001Z" stroke="#5EB700" stroke-width="2.66667" stroke-linecap="round" stroke-linejoin="round"/>
<path d="M16.4993 20.6667C18.3403 20.6667 19.8327 18.8759 19.8327 16.6667C19.8327 14.4576 18.3403 12.6667 16.4993 12.6667C14.6584 12.6667 13.166 14.4576 13.166 16.6667C13.166 18.8759 14.6584 20.6667 16.4993 20.6667Z" stroke="#5EB700" stroke-width="2.66667" stroke-linejoin="round"/>
</svg>
