<svg width="25" height="24" viewBox="0 0 25 24" fill="none" xmlns="http://www.w3.org/2000/svg">
<path fill-rule="evenodd" clip-rule="evenodd" d="M17.0189 2.14018C18.0441 1.11505 19.7061 1.11506 20.7311 2.14018L22.3598 3.76887C23.385 4.79398 23.385 6.45604 22.3598 7.48117L9.44537 20.3957C9.12992 20.7111 8.73929 20.9409 8.31035 21.0635L3.43409 22.4567C3.04124 22.569 2.61844 22.4594 2.32954 22.1705C2.04064 21.8816 1.93107 21.4589 2.04331 21.066L3.43654 16.1897C3.55909 15.7608 3.78893 15.3701 4.10438 15.0546L17.0189 2.14018ZM19.1402 3.73117C18.9937 3.58473 18.7563 3.58473 18.6098 3.73117L16.716 5.62501L18.875 7.78402L20.7689 5.89018C20.9153 5.74374 20.9153 5.5063 20.7689 5.35986L19.1402 3.73117ZM17.284 9.37501L15.125 7.216L5.69537 16.6457C5.65031 16.6907 5.61748 16.7465 5.59996 16.8078L4.76305 19.737L7.69223 18.9C7.75351 18.8826 7.80931 18.8498 7.85438 18.8046L17.284 9.37501Z" fill="#5EB700"/>
</svg>
