<svg width="32" height="32" viewBox="0 0 32 32" fill="none" xmlns="http://www.w3.org/2000/svg">
<path fill-rule="evenodd" clip-rule="evenodd" d="M7.28289 2.99997C7.3116 2.99998 7.34064 3 7.37005 3C7.39716 3 7.42392 2.99999 7.45032 2.99998C7.89317 2.99978 8.23762 2.99963 8.55588 3.05579C9.7551 3.26742 10.771 4.06062 11.2672 5.17271C11.3989 5.46785 11.4822 5.80205 11.5895 6.23173C11.5959 6.25735 11.6023 6.2833 11.6089 6.3096L12.1604 8.51557L12.1725 8.56382C12.3593 9.31086 12.5178 9.94487 12.594 10.482C12.6752 11.0539 12.6775 11.6002 12.495 12.1609C12.3124 12.7216 11.9889 13.1618 11.5866 13.5763C11.2088 13.9656 10.7073 14.3848 10.1166 14.8787L10.0784 14.9106L7.92876 16.7077C9.6665 19.8536 12.1471 22.3342 15.293 24.072L17.0902 21.9223L17.1221 21.8842C17.616 21.2934 18.0351 20.792 18.4244 20.4141C18.8389 20.0118 19.2791 19.6883 19.8398 19.5057C20.4005 19.3232 20.9468 19.3256 21.5187 19.4067C22.0559 19.483 22.6899 19.6415 23.437 19.8283L23.4852 19.8403L25.6911 20.3918C25.7174 20.3984 25.7434 20.4049 25.769 20.4113C26.1987 20.5185 26.5329 20.6019 26.828 20.7336C27.9401 21.2297 28.7333 22.2456 28.9449 23.4449C29.0011 23.7631 29.001 24.1076 29.0008 24.5504C29.0007 24.5768 29.0007 24.6036 29.0007 24.6307C29.0007 24.6601 29.0007 24.6891 29.0008 24.7178C29.001 25.2285 29.0013 25.6315 28.9125 26.0286C28.5897 27.4739 27.2519 28.6875 25.7821 28.8685C25.3789 28.9181 25.0324 28.8842 24.6014 28.8419C24.5808 28.8399 24.5601 28.8379 24.5391 28.8358C21.0195 28.4924 17.8519 27.6132 15.0929 26.2269C10.9941 24.1674 7.83335 21.0067 5.77385 16.9078C4.38757 14.1488 3.50831 10.9812 3.16492 7.46167C3.16287 7.44067 3.16083 7.41989 3.15881 7.39929C3.11656 6.96831 3.0826 6.62183 3.13224 6.21862C3.3132 4.7488 4.52681 3.41102 5.97211 3.08819C6.36924 2.99948 6.7722 2.99969 7.28289 2.99997ZM17.1443 24.9758C19.3849 25.936 21.9206 26.5708 24.7333 26.8453C25.2486 26.8955 25.3762 26.9034 25.5377 26.8835C26.1681 26.8059 26.8222 26.2125 26.9606 25.5926C26.9952 25.4378 27.0007 25.2686 27.0007 24.6307C27.0007 24.0698 26.997 23.9151 26.9754 23.7924C26.8792 23.2473 26.5186 22.7855 26.0131 22.56C25.8994 22.5093 25.7502 22.4681 25.2061 22.3321L23.0001 21.7806C22.1918 21.5785 21.6593 21.4467 21.2377 21.3869C20.8392 21.3303 20.627 21.3528 20.459 21.4075C20.2909 21.4622 20.1062 21.5689 19.8174 21.8493C19.5118 22.1459 19.159 22.5659 18.6246 23.2051L17.1443 24.9758ZM7.02497 14.8565L8.79559 13.3762C9.43479 12.8418 9.85485 12.489 10.1515 12.1833C10.4318 11.8945 10.5385 11.7098 10.5932 11.5418C10.648 11.3737 10.6704 11.1616 10.6139 10.7631C10.554 10.3414 10.4222 9.80893 10.2201 9.00064L9.66862 6.79467C9.5326 6.25057 9.49146 6.10133 9.44071 5.9876C9.21519 5.4821 8.75341 5.12156 8.2083 5.02536C8.08566 5.00372 7.9309 5 7.37005 5C6.73215 5 6.56289 5.00551 6.4081 5.04008C5.78825 5.17854 5.19486 5.83264 5.11725 6.46301C5.09737 6.62452 5.10519 6.75216 5.15547 7.26746C5.42989 10.0802 6.06477 12.6159 7.02497 14.8565Z" fill="#5EB700"/>
</svg>
