<svg width="33" height="32" viewBox="0 0 33 32" fill="none" xmlns="http://www.w3.org/2000/svg">
<path fill-rule="evenodd" clip-rule="evenodd" d="M16.5 5C10.4249 5 5.5 9.92487 5.5 16C5.5 22.0751 10.4249 27 16.5 27C22.5751 27 27.5 22.0751 27.5 16C27.5 9.92487 22.5751 5 16.5 5ZM3.5 16C3.5 8.8203 9.3203 3 16.5 3C23.6797 3 29.5 8.8203 29.5 16C29.5 23.1797 23.6797 29 16.5 29C9.3203 29 3.5 23.1797 3.5 16ZM17.8333 21.3333C17.8333 22.0697 17.2364 22.6667 16.5 22.6667C15.7636 22.6667 15.1667 22.0697 15.1667 21.3333C15.1667 20.597 15.7636 20 16.5 20C17.2364 20 17.8333 20.597 17.8333 21.3333ZM14.8333 13.3333C14.8333 12.4129 15.5795 11.6667 16.5 11.6667C17.4205 11.6667 18.1667 12.4129 18.1667 13.3333V13.4951C18.1667 13.98 17.974 14.4451 17.6311 14.788L15.7929 16.6262C15.4024 17.0168 15.4024 17.6499 15.7929 18.0404C16.1834 18.431 16.8166 18.431 17.2071 18.0404L19.0453 16.2022C19.7633 15.4842 20.1667 14.5105 20.1667 13.4951V13.3333C20.1667 11.3083 18.525 9.66667 16.5 9.66667C14.475 9.66667 12.8333 11.3083 12.8333 13.3333V14C12.8333 14.5523 13.281 15 13.8333 15C14.3856 15 14.8333 14.5523 14.8333 14V13.3333Z" fill="#5EB700"/>
</svg>
