<svg width="33" height="32" viewBox="0 0 33 32" fill="none" xmlns="http://www.w3.org/2000/svg">
<path fill-rule="evenodd" clip-rule="evenodd" d="M6.85982 6.56511C8.98451 4.79454 12.2032 3 16.5 3C23.7211 3 29.5 8.82243 29.5 16C29.5 16.5523 29.0523 17 28.5 17C27.9477 17 27.5 16.5523 27.5 16C27.5 9.92273 22.6123 5 16.5 5C12.7968 5 10.0155 6.5388 8.14018 8.10155C7.48764 8.64534 6.94846 9.18933 6.52343 9.66667H9.83333C10.3856 9.66667 10.8333 10.1144 10.8333 10.6667C10.8333 11.219 10.3856 11.6667 9.83333 11.6667H4.5C3.94772 11.6667 3.5 11.219 3.5 10.6667V4.66667C3.5 4.11438 3.94772 3.66667 4.5 3.66667C5.05228 3.66667 5.5 4.11438 5.5 4.66667V7.82956C5.89074 7.42484 6.34392 6.99502 6.85982 6.56511ZM4.5 15C5.05228 15 5.5 15.4477 5.5 16C5.5 22.0751 10.4249 27 16.5 27C19.4668 27 21.9034 25.5066 23.6469 23.9258C24.2568 23.3729 24.7708 22.8189 25.1806 22.3333H21.7474C21.1951 22.3333 20.7474 21.8856 20.7474 21.3333C20.7474 20.781 21.1951 20.3333 21.7474 20.3333H27.1667C27.719 20.3333 28.1667 20.781 28.1667 21.3333V27.3333C28.1667 27.8856 27.719 28.3333 27.1667 28.3333C26.6144 28.3333 26.1667 27.8856 26.1667 27.3333V24.2386C25.8206 24.6146 25.4278 25.0108 24.9903 25.4075C23.0573 27.1601 20.1607 29 16.5 29C9.3203 29 3.5 23.1797 3.5 16C3.5 15.4477 3.94772 15 4.5 15Z" fill="#5EB700"/>
</svg>
