<svg width="28" height="28" viewBox="0 0 28 28" fill="none" xmlns="http://www.w3.org/2000/svg">
<path d="M14.0005 18.4443C13.7807 18.4443 13.5659 18.5095 13.3832 18.6316C13.2005 18.7537 13.0581 18.9272 12.974 19.1302C12.8899 19.3333 12.8679 19.5567 12.9107 19.7722C12.9536 19.9877 13.0594 20.1857 13.2148 20.3411C13.3702 20.4965 13.5682 20.6023 13.7837 20.6452C13.9993 20.6881 14.2227 20.6661 14.4257 20.582C14.6287 20.4979 14.8023 20.3554 14.9244 20.1727C15.0465 19.99 15.1116 19.7752 15.1116 19.5554C15.1116 19.2607 14.9946 18.9781 14.7862 18.7697C14.5778 18.5614 14.2952 18.4443 14.0005 18.4443ZM25.8561 20.0776L16.9116 4.52209C16.6225 4.00377 16.2003 3.57204 15.6885 3.2715C15.1767 2.97096 14.594 2.8125 14.0005 2.8125C13.407 2.8125 12.8243 2.97096 12.3125 3.2715C11.8007 3.57204 11.3785 4.00377 11.0894 4.52209L2.20051 20.0776C1.90139 20.5821 1.74066 21.1566 1.73456 21.743C1.72845 22.3294 1.87717 22.9071 2.16571 23.4177C2.45425 23.9283 2.8724 24.3537 3.37793 24.651C3.88347 24.9483 4.45849 25.107 5.04495 25.111H22.9561C23.5472 25.1168 24.1293 24.9653 24.6426 24.672C25.1559 24.3787 25.582 23.9541 25.8771 23.4419C26.1723 22.9296 26.3259 22.3481 26.3222 21.7569C26.3185 21.1657 26.1576 20.5862 25.8561 20.0776ZM23.9338 22.2999C23.8364 22.4731 23.6944 22.6171 23.5224 22.7168C23.3504 22.8165 23.1548 22.8682 22.9561 22.8665H5.04495C4.84618 22.8682 4.65062 22.8165 4.47864 22.7168C4.30666 22.6171 4.16457 22.4731 4.06717 22.2999C3.96965 22.131 3.91831 21.9394 3.91831 21.7443C3.91831 21.5493 3.96965 21.3577 4.06717 21.1888L12.9561 5.6332C13.0493 5.4512 13.191 5.29846 13.3654 5.1918C13.5399 5.08515 13.7405 5.02871 13.945 5.02871C14.1494 5.02871 14.35 5.08515 14.5245 5.1918C14.6989 5.29846 14.8406 5.4512 14.9338 5.6332L23.8783 21.1888C23.9885 21.3552 24.0519 21.5484 24.0616 21.7478C24.0714 21.9472 24.0273 22.1456 23.9338 22.3221V22.2999ZM14.0005 9.55542C13.7058 9.55542 13.4232 9.67249 13.2148 9.88086C13.0065 10.0892 12.8894 10.3718 12.8894 10.6665V15.111C12.8894 15.4057 13.0065 15.6883 13.2148 15.8967C13.4232 16.105 13.7058 16.2221 14.0005 16.2221C14.2952 16.2221 14.5778 16.105 14.7862 15.8967C14.9946 15.6883 15.1116 15.4057 15.1116 15.111V10.6665C15.1116 10.3718 14.9946 10.0892 14.7862 9.88086C14.5778 9.67249 14.2952 9.55542 14.0005 9.55542Z" fill="white" fill-opacity="0.87"/>
</svg>
