<svg width="32" height="32" viewBox="0 0 32 32" fill="none" xmlns="http://www.w3.org/2000/svg">
<path fill-rule="evenodd" clip-rule="evenodd" d="M11.6661 9.33333C11.6661 6.9401 13.6062 5 15.9994 5C18.3926 5 20.3327 6.9401 20.3327 9.33333C20.3327 11.7266 18.3926 13.6667 15.9994 13.6667C13.6062 13.6667 11.6661 11.7266 11.6661 9.33333ZM15.9994 3C12.5016 3 9.66606 5.83553 9.66606 9.33333C9.66606 12.8311 12.5016 15.6667 15.9994 15.6667C19.4972 15.6667 22.3327 12.8311 22.3327 9.33333C22.3327 5.83553 19.4972 3 15.9994 3ZM7.66606 25.3333C7.66606 22.9401 9.60616 21 11.9994 21H19.9994C22.3926 21 24.3327 22.9401 24.3327 25.3333C24.3327 26.2538 23.5865 27 22.6661 27H9.33272C8.41225 27 7.66606 26.2538 7.66606 25.3333ZM11.9994 19C8.50159 19 5.66606 21.8355 5.66606 25.3333C5.66606 27.3584 7.30768 29 9.33272 29H22.6661C24.6911 29 26.3327 27.3584 26.3327 25.3333C26.3327 21.8355 23.4972 19 19.9994 19H11.9994Z" fill="#5EB700"/>
</svg>
